STARTFONT 2.1
FONT "open_iconic_all_1x"
SIZE 16 75 75
FONTBOUNDINGBOX 16 16 0 0
STARTPROPERTIES 3
COPYRIGHT "https://github.com/iconic/open-iconic, SIL OPEN FONT LICENSE"
FONT_ASCENT 0
FONT_DESCENT 0
ENDPROPERTIES
STARTCHAR /home/kraus/git/open-iconic/png/account-login.png
ENCODING 64
DWIDTH 8 0
BBX 8 8 0 0
BITMAP
1f
01
09
fd
09
01
1f
00
ENDCHAR
STARTCHAR /home/kraus/git/open-iconic/png/account-logout.png
ENCODING 65
DWIDTH 8 0
BBX 8 8 0 0
BITMAP
1f
01
41
fd
41
01
1f
00
ENDCHAR
STARTCHAR /home/kraus/git/open-iconic/png/action-redo.png
ENCODING 66
DWIDTH 8 0
BBX 8 8 0 0
BITMAP
00
38
0c
06
06
06
00
00
ENDCHAR
STARTCHAR /home/kraus/git/open-iconic/png/action-undo.png
ENCODING 67
DWIDTH 8 0
BBX 8 8 0 0
BITMAP
00
1c
30
60
60
60
00
00
ENDCHAR
STARTCHAR /home/kraus/git/open-iconic/png/align-center.png
ENCODING 68
DWIDTH 8 0
BBX 8 8 0 0
BITMAP
ff
00
7e
00
ff
00
7e
00
ENDCHAR
STARTCHAR /home/kraus/git/open-iconic/png/align-left.png
ENCODING 69
DWIDTH 8 0
BBX 8 8 0 0
BITMAP
ff
00
fc
00
ff
00
fc
00
ENDCHAR
STARTCHAR /home/kraus/git/open-iconic/png/align-right.png
ENCODING 70
DWIDTH 8 0
BBX 8 8 0 0
BITMAP
ff
00
3f
00
ff
00
3f
00
ENDCHAR
STARTCHAR /home/kraus/git/open-iconic/png/aperture.png
ENCODING 71
DWIDTH 8 0
BBX 8 8 0 0
BITMAP
1c
5c
e3
c3
03
40
6e
2c
ENDCHAR
STARTCHAR /home/kraus/git/open-iconic/png/arrow-bottom.png
ENCODING 72
DWIDTH 8 0
BBX 8 8 0 0
BITMAP
10
10
10
10
10
7c
38
10
ENDCHAR
STARTCHAR /home/kraus/git/open-iconic/png/arrow-circle-bottom.png
ENCODING 73
DWIDTH 8 0
BBX 8 8 0 0
BITMAP
3c
66
e7
e7
81
c3
66
3c
ENDCHAR
STARTCHAR /home/kraus/git/open-iconic/png/arrow-circle-left.png
ENCODING 74
DWIDTH 8 0
BBX 8 8 0 0
BITMAP
3c
6e
cf
81
81
cf
6e
3c
ENDCHAR
STARTCHAR /home/kraus/git/open-iconic/png/arrow-circle-right.png
ENCODING 75
DWIDTH 8 0
BBX 8 8 0 0
BITMAP
3c
76
f3
81
81
f3
76
3c
ENDCHAR
STARTCHAR /home/kraus/git/open-iconic/png/arrow-circle-top.png
ENCODING 76
DWIDTH 8 0
BBX 8 8 0 0
BITMAP
3c
66
c3
81
e7
e7
66
3c
ENDCHAR
STARTCHAR /home/kraus/git/open-iconic/png/arrow-left.png
ENCODING 77
DWIDTH 8 0
BBX 8 8 0 0
BITMAP
00
20
60
ff
60
20
00
00
ENDCHAR
STARTCHAR /home/kraus/git/open-iconic/png/arrow-right.png
ENCODING 78
DWIDTH 8 0
BBX 8 8 0 0
BITMAP
00
04
06
ff
06
04
00
00
ENDCHAR
STARTCHAR /home/kraus/git/open-iconic/png/arrow-thick-bottom.png
ENCODING 79
DWIDTH 8 0
BBX 8 8 0 0
BITMAP
18
18
18
18
18
3c
18
08
ENDCHAR
STARTCHAR /home/kraus/git/open-iconic/png/arrow-thick-left.png
ENCODING 80
DWIDTH 8 0
BBX 8 8 0 0
BITMAP
00
00
20
7f
ff
20
00
00
ENDCHAR
STARTCHAR /home/kraus/git/open-iconic/png/arrow-thick-right.png
ENCODING 81
DWIDTH 8 0
BBX 8 8 0 0
BITMAP
00
00
06
ff
fe
04
00
00
ENDCHAR
STARTCHAR /home/kraus/git/open-iconic/png/arrow-thick-top.png
ENCODING 82
DWIDTH 8 0
BBX 8 8 0 0
BITMAP
10
38
3c
18
18
18
18
18
ENDCHAR
STARTCHAR /home/kraus/git/open-iconic/png/arrow-top.png
ENCODING 83
DWIDTH 8 0
BBX 8 8 0 0
BITMAP
10
38
7c
10
10
10
10
10
ENDCHAR
STARTCHAR /home/kraus/git/open-iconic/png/audio.png
ENCODING 84
DWIDTH 8 0
BBX 8 8 0 0
BITMAP
00
42
81
a5
a5
c3
00
00
ENDCHAR
STARTCHAR /home/kraus/git/open-iconic/png/audio-spectrum.png
ENCODING 85
DWIDTH 8 0
BBX 8 8 0 0
BITMAP
08
28
2a
aa
aa
2a
28
08
ENDCHAR
STARTCHAR /home/kraus/git/open-iconic/png/badge.png
ENCODING 86
DWIDTH 8 0
BBX 8 8 0 0
BITMAP
18
3c
3c
18
00
18
18
00
ENDCHAR
STARTCHAR /home/kraus/git/open-iconic/png/ban.png
ENCODING 87
DWIDTH 8 0
BBX 8 8 0 0
BITMAP
3c
46
87
89
91
e1
62
3c
ENDCHAR
STARTCHAR /home/kraus/git/open-iconic/png/bar-chart.png
ENCODING 88
DWIDTH 8 0
BBX 8 8 0 0
BITMAP
86
86
b6
b6
b6
80
ff
00
ENDCHAR
STARTCHAR /home/kraus/git/open-iconic/png/basket.png
ENCODING 89
DWIDTH 8 0
BBX 8 8 0 0
BITMAP
18
18
24
ff
7e
5a
5a
7e
ENDCHAR
STARTCHAR /home/kraus/git/open-iconic/png/battery-empty.png
ENCODING 90
DWIDTH 8 0
BBX 8 8 0 0
BITMAP
00
fe
82
83
83
82
fe
00
ENDCHAR
STARTCHAR /home/kraus/git/open-iconic/png/battery-full.png
ENCODING 91
DWIDTH 8 0
BBX 8 8 0 0
BITMAP
00
fe
fe
ff
ff
fe
fe
00
ENDCHAR
STARTCHAR /home/kraus/git/open-iconic/png/beaker.png
ENCODING 92
DWIDTH 8 0
BBX 8 8 0 0
BITMAP
7e
24
24
66
42
ff
ff
ff
ENDCHAR
STARTCHAR /home/kraus/git/open-iconic/png/bell.png
ENCODING 93
DWIDTH 8 0
BBX 8 8 0 0
BITMAP
18
3c
3c
3c
7e
ff
00
18
ENDCHAR
STARTCHAR /home/kraus/git/open-iconic/png/bluetooth.png
ENCODING 94
DWIDTH 8 0
BBX 8 8 0 0
BITMAP
10
18
64
38
38
64
18
10
ENDCHAR
STARTCHAR /home/kraus/git/open-iconic/png/bold.png
ENCODING 95
DWIDTH 8 0
BBX 8 8 0 0
BITMAP
fc
66
66
7e
63
63
63
fe
ENDCHAR
STARTCHAR /home/kraus/git/open-iconic/png/bolt.png
ENCODING 96
DWIDTH 8 0
BBX 8 8 0 0
BITMAP
00
10
10
3c
78
10
10
00
ENDCHAR
STARTCHAR /home/kraus/git/open-iconic/png/book.png
ENCODING 97
DWIDTH 8 0
BBX 8 8 0 0
BITMAP
f2
f2
f2
fe
fe
fe
80
fe
ENDCHAR
STARTCHAR /home/kraus/git/open-iconic/png/bookmark.png
ENCODING 98
DWIDTH 8 0
BBX 8 8 0 0
BITMAP
3c
3c
3c
3c
3c
3c
24
00
ENDCHAR
STARTCHAR /home/kraus/git/open-iconic/png/box.png
ENCODING 99
DWIDTH 8 0
BBX 8 8 0 0
BITMAP
ff
00
e7
ff
ff
ff
ff
ff
ENDCHAR
STARTCHAR /home/kraus/git/open-iconic/png/briefcase.png
ENCODING 100
DWIDTH 8 0
BBX 8 8 0 0
BITMAP
3c
24
ff
ff
ff
00
ff
ff
ENDCHAR
STARTCHAR /home/kraus/git/open-iconic/png/british-pound.png
ENCODING 101
DWIDTH 8 0
BBX 8 8 0 0
BITMAP
18
24
20
20
78
20
40
7e
ENDCHAR
STARTCHAR /home/kraus/git/open-iconic/png/browser.png
ENCODING 102
DWIDTH 8 0
BBX 8 8 0 0
BITMAP
ff
a1
ff
81
81
81
81
ff
ENDCHAR
STARTCHAR /home/kraus/git/open-iconic/png/brush.png
ENCODING 103
DWIDTH 8 0
BBX 8 8 0 0
BITMAP
01
06
0e
0c
30
70
70
e0
ENDCHAR
STARTCHAR /home/kraus/git/open-iconic/png/bug.png
ENCODING 104
DWIDTH 8 0
BBX 8 8 0 0
BITMAP
10
38
fe
7c
ee
6c
ee
00
ENDCHAR
STARTCHAR /home/kraus/git/open-iconic/png/bullhorn.png
ENCODING 105
DWIDTH 8 0
BBX 8 8 0 0
BITMAP
02
1a
fa
fa
7a
22
20
00
ENDCHAR
STARTCHAR /home/kraus/git/open-iconic/png/calculator.png
ENCODING 106
DWIDTH 8 0
BBX 8 8 0 0
BITMAP
fe
82
82
fe
aa
fa
aa
fe
ENDCHAR
STARTCHAR /home/kraus/git/open-iconic/png/calendar.png
ENCODING 107
DWIDTH 8 0
BBX 8 8 0 0
BITMAP
fe
fe
00
fe
aa
fe
ae
fe
ENDCHAR
STARTCHAR /home/kraus/git/open-iconic/png/camera-slr.png
ENCODING 108
DWIDTH 8 0
BBX 8 8 0 0
BITMAP
0c
1e
ff
b3
ed
ed
f3
ff
ENDCHAR
STARTCHAR /home/kraus/git/open-iconic/png/caret-bottom.png
ENCODING 109
DWIDTH 8 0
BBX 8 8 0 0
BITMAP
00
00
7e
3c
18
00
00
00
ENDCHAR
STARTCHAR /home/kraus/git/open-iconic/png/caret-left.png
ENCODING 110
DWIDTH 8 0
BBX 8 8 0 0
BITMAP
00
04
0c
1c
1c
0c
04
00
ENDCHAR
STARTCHAR /home/kraus/git/open-iconic/png/caret-right.png
ENCODING 111
DWIDTH 8 0
BBX 8 8 0 0
BITMAP
00
20
30
38
38
30
20
00
ENDCHAR
STARTCHAR /home/kraus/git/open-iconic/png/caret-top.png
ENCODING 112
DWIDTH 8 0
BBX 8 8 0 0
BITMAP
00
00
00
18
3c
7e
00
00
ENDCHAR
STARTCHAR /home/kraus/git/open-iconic/png/cart.png
ENCODING 113
DWIDTH 8 0
BBX 8 8 0 0
BITMAP
00
e0
3f
1e
1e
00
12
00
ENDCHAR
STARTCHAR /home/kraus/git/open-iconic/png/chat.png
ENCODING 114
DWIDTH 8 0
BBX 8 8 0 0
BITMAP
f8
c0
df
df
1f
1f
00
00
ENDCHAR
STARTCHAR /home/kraus/git/open-iconic/png/check.png
ENCODING 115
DWIDTH 8 0
BBX 8 8 0 0
BITMAP
00
02
07
4e
fc
78
30
00
ENDCHAR
STARTCHAR /home/kraus/git/open-iconic/png/chevron-bottom.png
ENCODING 116
DWIDTH 8 0
BBX 8 8 0 0
BITMAP
00
42
e7
7e
3c
18
00
00
ENDCHAR
STARTCHAR /home/kraus/git/open-iconic/png/chevron-left.png
ENCODING 117
DWIDTH 8 0
BBX 8 8 0 0
BITMAP
00
0c
18
30
30
18
0c
00
ENDCHAR
STARTCHAR /home/kraus/git/open-iconic/png/chevron-right.png
ENCODING 118
DWIDTH 8 0
BBX 8 8 0 0
BITMAP
20
70
38
1c
1c
38
70
20
ENDCHAR
STARTCHAR /home/kraus/git/open-iconic/png/chevron-top.png
ENCODING 119
DWIDTH 8 0
BBX 8 8 0 0
BITMAP
00
00
18
3c
66
42
00
00
ENDCHAR
STARTCHAR /home/kraus/git/open-iconic/png/circle-check.png
ENCODING 120
DWIDTH 8 0
BBX 8 8 0 0
BITMAP
3c
7e
fb
f3
c7
ff
7e
3c
ENDCHAR
STARTCHAR /home/kraus/git/open-iconic/png/circle-x.png
ENCODING 121
DWIDTH 8 0
BBX 8 8 0 0
BITMAP
3c
7e
db
e7
e7
db
7e
3c
ENDCHAR
STARTCHAR /home/kraus/git/open-iconic/png/clipboard.png
ENCODING 122
DWIDTH 8 0
BBX 8 8 0 0
BITMAP
10
ba
82
fe
fe
fe
fe
fe
ENDCHAR
STARTCHAR /home/kraus/git/open-iconic/png/clock.png
ENCODING 123
DWIDTH 8 0
BBX 8 8 0 0
BITMAP
3c
42
81
81
89
81
42
3c
ENDCHAR
STARTCHAR /home/kraus/git/open-iconic/png/cloud.png
ENCODING 124
DWIDTH 8 0
BBX 8 8 0 0
BITMAP
00
1c
3e
7e
ff
ff
7f
00
ENDCHAR
STARTCHAR /home/kraus/git/open-iconic/png/cloud-download.png
ENCODING 125
DWIDTH 8 0
BBX 8 8 0 0
BITMAP
1c
3e
7e
e3
eb
08
1c
08
ENDCHAR
STARTCHAR /home/kraus/git/open-iconic/png/cloud-upload.png
ENCODING 126
DWIDTH 8 0
BBX 8 8 0 0
BITMAP
1c
3e
7e
f7
e3
08
1c
08
ENDCHAR
STARTCHAR /home/kraus/git/open-iconic/png/cloudy.png
ENCODING 127
DWIDTH 8 0
BBX 8 8 0 0
BITMAP
70
e0
dc
3e
7e
ff
ff
7f
ENDCHAR
STARTCHAR /home/kraus/git/open-iconic/png/code.png
ENCODING 128
DWIDTH 8 0
BBX 8 8 0 0
BITMAP
00
04
4a
89
91
52
20
00
ENDCHAR
STARTCHAR /home/kraus/git/open-iconic/png/cog.png
ENCODING 129
DWIDTH 8 0
BBX 8 8 0 0
BITMAP
18
7e
7e
e7
e7
7e
7e
18
ENDCHAR
STARTCHAR /home/kraus/git/open-iconic/png/collapse-down.png
ENCODING 130
DWIDTH 8 0
BBX 8 8 0 0
BITMAP
ff
ff
00
18
00
00
00
ff
ENDCHAR
STARTCHAR /home/kraus/git/open-iconic/png/collapse-left.png
ENCODING 131
DWIDTH 8 0
BBX 8 8 0 0
BITMAP
83
83
83
8b
8b
83
83
83
ENDCHAR
STARTCHAR /home/kraus/git/open-iconic/png/collapse-right.png
ENCODING 132
DWIDTH 8 0
BBX 8 8 0 0
BITMAP
c1
c1
c1
d1
d1
c1
c1
c1
ENDCHAR
STARTCHAR /home/kraus/git/open-iconic/png/collapse-up.png
ENCODING 133
DWIDTH 8 0
BBX 8 8 0 0
BITMAP
ff
00
00
00
18
00
ff
ff
ENDCHAR
STARTCHAR /home/kraus/git/open-iconic/png/command.png
ENCODING 134
DWIDTH 8 0
BBX 8 8 0 0
BITMAP
ee
aa
fe
28
fe
aa
ee
00
ENDCHAR
STARTCHAR /home/kraus/git/open-iconic/png/comment-square.png
ENCODING 135
DWIDTH 8 0
BBX 8 8 0 0
BITMAP
ff
ff
ff
ff
ff
ff
01
00
ENDCHAR
STARTCHAR /home/kraus/git/open-iconic/png/compass.png
ENCODING 136
DWIDTH 8 0
BBX 8 8 0 0
BITMAP
3c
42
85
99
99
a1
42
3c
ENDCHAR
STARTCHAR /home/kraus/git/open-iconic/png/contrast.png
ENCODING 137
DWIDTH 8 0
BBX 8 8 0 0
BITMAP
3c
72
f1
f1
f1
f1
72
3c
ENDCHAR
STARTCHAR /home/kraus/git/open-iconic/png/copywriting.png
ENCODING 138
DWIDTH 8 0
BBX 8 8 0 0
BITMAP
ff
00
f8
00
00
ff
00
fd
ENDCHAR
STARTCHAR /home/kraus/git/open-iconic/png/credit-card.png
ENCODING 139
DWIDTH 8 0
BBX 8 8 0 0
BITMAP
00
ff
00
ff
ff
af
ff
00
ENDCHAR
STARTCHAR /home/kraus/git/open-iconic/png/crop.png
ENCODING 140
DWIDTH 8 0
BBX 8 8 0 0
BITMAP
41
fe
46
4a
52
62
7f
02
ENDCHAR
STARTCHAR /home/kraus/git/open-iconic/png/dashboard.png
ENCODING 141
DWIDTH 8 0
BBX 8 8 0 0
BITMAP
3c
42
81
a5
99
99
42
3c
ENDCHAR
STARTCHAR /home/kraus/git/open-iconic/png/data-transfer-download.png
ENCODING 142
DWIDTH 8 0
BBX 8 8 0 0
BITMAP
18
18
18
3c
18
00
00
ff
ENDCHAR
STARTCHAR /home/kraus/git/open-iconic/png/data-transfer-upload.png
ENCODING 143
DWIDTH 8 0
BBX 8 8 0 0
BITMAP
ff
00
00
18
3c
18
18
18
ENDCHAR
STARTCHAR /home/kraus/git/open-iconic/png/delete.png
ENCODING 144
DWIDTH 8 0
BBX 8 8 0 0
BITMAP
00
3f
6d
f3
f3
6d
3f
00
ENDCHAR
STARTCHAR /home/kraus/git/open-iconic/png/dial.png
ENCODING 145
DWIDTH 8 0
BBX 8 8 0 0
BITMAP
00
3c
42
99
bd
3c
18
00
ENDCHAR
STARTCHAR /home/kraus/git/open-iconic/png/document.png
ENCODING 146
DWIDTH 8 0
BBX 8 8 0 0
BITMAP
e0
e8
ac
e0
be
fe
86
fe
ENDCHAR
STARTCHAR /home/kraus/git/open-iconic/png/dollar.png
ENCODING 147
DWIDTH 8 0
BBX 8 8 0 0
BITMAP
10
7c
44
70
1c
44
7c
10
ENDCHAR
STARTCHAR /home/kraus/git/open-iconic/png/double-quote-sans-left.png
ENCODING 148
DWIDTH 8 0
BBX 8 8 0 0
BITMAP
00
e7
e7
e7
c6
84
00
00
ENDCHAR
STARTCHAR /home/kraus/git/open-iconic/png/double-quote-sans-right.png
ENCODING 149
DWIDTH 8 0
BBX 8 8 0 0
BITMAP
00
00
21
63
e7
e7
e7
00
ENDCHAR
STARTCHAR /home/kraus/git/open-iconic/png/double-quote-serif-left.png
ENCODING 150
DWIDTH 8 0
BBX 8 8 0 0
BITMAP
00
63
c6
84
e7
e7
e7
00
ENDCHAR
STARTCHAR /home/kraus/git/open-iconic/png/double-quote-serif-right.png
ENCODING 151
DWIDTH 8 0
BBX 8 8 0 0
BITMAP
00
e7
e7
e7
21
63
c6
00
ENDCHAR
STARTCHAR /home/kraus/git/open-iconic/png/droplet.png
ENCODING 152
DWIDTH 8 0
BBX 8 8 0 0
BITMAP
00
18
3c
7e
7e
5e
6e
3c
ENDCHAR
STARTCHAR /home/kraus/git/open-iconic/png/eject.png
ENCODING 153
DWIDTH 8 0
BBX 8 8 0 0
BITMAP
00
18
3c
7e
ff
00
ff
ff
ENDCHAR
STARTCHAR /home/kraus/git/open-iconic/png/elevator.png
ENCODING 154
DWIDTH 8 0
BBX 8 8 0 0
BITMAP
00
18
3c
00
00
3c
18
00
ENDCHAR
STARTCHAR /home/kraus/git/open-iconic/png/ellipses.png
ENCODING 155
DWIDTH 8 0
BBX 8 8 0 0
BITMAP
00
00
00
db
db
00
00
00
ENDCHAR
STARTCHAR /home/kraus/git/open-iconic/png/envelope-closed.png
ENCODING 156
DWIDTH 8 0
BBX 8 8 0 0
BITMAP
00
ff
7e
99
e7
ff
ff
00
ENDCHAR
STARTCHAR /home/kraus/git/open-iconic/png/envelope-open.png
ENCODING 157
DWIDTH 8 0
BBX 8 8 0 0
BITMAP
18
66
81
bd
99
e7
ff
ff
ENDCHAR
STARTCHAR /home/kraus/git/open-iconic/png/euro.png
ENCODING 158
DWIDTH 8 0
BBX 8 8 0 0
BITMAP
1e
20
40
f8
40
f8
20
1e
ENDCHAR
STARTCHAR /home/kraus/git/open-iconic/png/excerpt.png
ENCODING 159
DWIDTH 8 0
BBX 8 8 0 0
BITMAP
fe
00
f8
00
ff
00
a8
00
ENDCHAR
STARTCHAR /home/kraus/git/open-iconic/png/expand-down.png
ENCODING 160
DWIDTH 8 0
BBX 8 8 0 0
BITMAP
ff
00
18
00
00
00
ff
ff
ENDCHAR
STARTCHAR /home/kraus/git/open-iconic/png/expand-left.png
ENCODING 161
DWIDTH 8 0
BBX 8 8 0 0
BITMAP
83
83
83
a3
a3
83
83
83
ENDCHAR
STARTCHAR /home/kraus/git/open-iconic/png/expand-right.png
ENCODING 162
DWIDTH 8 0
BBX 8 8 0 0
BITMAP
c1
c1
c1
c5
c5
c1
c1
c1
ENDCHAR
STARTCHAR /home/kraus/git/open-iconic/png/expand-up.png
ENCODING 163
DWIDTH 8 0
BBX 8 8 0 0
BITMAP
ff
ff
00
00
00
18
00
ff
ENDCHAR
STARTCHAR /home/kraus/git/open-iconic/png/external-link.png
ENCODING 164
DWIDTH 8 0
BBX 8 8 0 0
BITMAP
c7
87
87
88
80
80
81
ff
ENDCHAR
STARTCHAR /home/kraus/git/open-iconic/png/eye.png
ENCODING 165
DWIDTH 8 0
BBX 8 8 0 0
BITMAP
00
3c
66
d3
db
66
3c
00
ENDCHAR
STARTCHAR /home/kraus/git/open-iconic/png/eyedropper.png
ENCODING 166
DWIDTH 8 0
BBX 8 8 0 0
BITMAP
17
0f
17
22
45
c8
f0
e0
ENDCHAR
STARTCHAR /home/kraus/git/open-iconic/png/file.png
ENCODING 167
DWIDTH 8 0
BBX 8 8 0 0
BITMAP
e0
e8
ec
e0
fe
fe
fe
fe
ENDCHAR
STARTCHAR /home/kraus/git/open-iconic/png/fire.png
ENCODING 168
DWIDTH 8 0
BBX 8 8 0 0
BITMAP
20
30
70
74
e6
ee
ce
5e
ENDCHAR
STARTCHAR /home/kraus/git/open-iconic/png/flag.png
ENCODING 169
DWIDTH 8 0
BBX 8 8 0 0
BITMAP
b8
be
bc
bc
8e
80
80
80
ENDCHAR
STARTCHAR /home/kraus/git/open-iconic/png/flash.png
ENCODING 170
DWIDTH 8 0
BBX 8 8 0 0
BITMAP
18
10
3c
08
08
38
30
00
ENDCHAR
STARTCHAR /home/kraus/git/open-iconic/png/folder.png
ENCODING 171
DWIDTH 8 0
BBX 8 8 0 0
BITMAP
e0
ff
00
ff
ff
ff
ff
ff
ENDCHAR
STARTCHAR /home/kraus/git/open-iconic/png/fork.png
ENCODING 172
DWIDTH 8 0
BBX 8 8 0 0
BITMAP
ee
ee
ee
44
7c
e0
e0
e0
ENDCHAR
STARTCHAR /home/kraus/git/open-iconic/png/fullscreen-enter.png
ENCODING 173
DWIDTH 8 0
BBX 8 8 0 0
BITMAP
e0
e0
e0
00
00
07
07
07
ENDCHAR
STARTCHAR /home/kraus/git/open-iconic/png/fullscreen-exit.png
ENCODING 174
DWIDTH 8 0
BBX 8 8 0 0
BITMAP
00
70
70
70
0e
0e
0e
00
ENDCHAR
STARTCHAR /home/kraus/git/open-iconic/png/globe.png
ENCODING 175
DWIDTH 8 0
BBX 8 8 0 0
BITMAP
3c
66
c7
87
8f
c3
62
3c
ENDCHAR
STARTCHAR /home/kraus/git/open-iconic/png/graph.png
ENCODING 176
DWIDTH 8 0
BBX 8 8 0 0
BITMAP
00
02
04
38
40
80
00
ff
ENDCHAR
STARTCHAR /home/kraus/git/open-iconic/png/grid-four-up.png
ENCODING 177
DWIDTH 8 0
BBX 8 8 0 0
BITMAP
aa
00
aa
00
aa
00
aa
00
ENDCHAR
STARTCHAR /home/kraus/git/open-iconic/png/grid-three-up.png
ENCODING 178
DWIDTH 8 0
BBX 8 8 0 0
BITMAP
db
db
00
db
db
00
db
db
ENDCHAR
STARTCHAR /home/kraus/git/open-iconic/png/grid-two-up.png
ENCODING 179
DWIDTH 8 0
BBX 8 8 0 0
BITMAP
e7
e7
e7
00
00
e7
e7
e7
ENDCHAR
STARTCHAR /home/kraus/git/open-iconic/png/hard-drive.png
ENCODING 180
DWIDTH 8 0
BBX 8 8 0 0
BITMAP
fe
fe
fe
fe
00
fe
fa
fe
ENDCHAR
STARTCHAR /home/kraus/git/open-iconic/png/header.png
ENCODING 181
DWIDTH 8 0
BBX 8 8 0 0
BITMAP
ee
44
44
7c
44
44
ee
00
ENDCHAR
STARTCHAR /home/kraus/git/open-iconic/png/headphones.png
ENCODING 182
DWIDTH 8 0
BBX 8 8 0 0
BITMAP
3c
66
42
42
c3
c3
c3
00
ENDCHAR
STARTCHAR /home/kraus/git/open-iconic/png/heart.png
ENCODING 183
DWIDTH 8 0
BBX 8 8 0 0
BITMAP
00
66
ff
ff
7e
3c
18
00
ENDCHAR
STARTCHAR /home/kraus/git/open-iconic/png/home.png
ENCODING 184
DWIDTH 8 0
BBX 8 8 0 0
BITMAP
18
3c
7e
7e
7e
66
66
00
ENDCHAR
STARTCHAR /home/kraus/git/open-iconic/png/image.png
ENCODING 185
DWIDTH 8 0
BBX 8 8 0 0
BITMAP
ff
81
81
81
e3
f1
f9
ff
ENDCHAR
STARTCHAR /home/kraus/git/open-iconic/png/inbox.png
ENCODING 186
DWIDTH 8 0
BBX 8 8 0 0
BITMAP
ff
ff
81
81
81
c3
ff
ff
ENDCHAR
STARTCHAR /home/kraus/git/open-iconic/png/infinity.png
ENCODING 187
DWIDTH 8 0
BBX 8 8 0 0
BITMAP
00
00
66
99
99
66
00
00
ENDCHAR
STARTCHAR /home/kraus/git/open-iconic/png/info.png
ENCODING 188
DWIDTH 8 0
BBX 8 8 0 0
BITMAP
0c
0c
00
38
08
10
10
1c
ENDCHAR
STARTCHAR /home/kraus/git/open-iconic/png/italic.png
ENCODING 189
DWIDTH 8 0
BBX 8 8 0 0
BITMAP
3e
1c
18
18
30
30
70
f8
ENDCHAR
STARTCHAR /home/kraus/git/open-iconic/png/justify-center.png
ENCODING 190
DWIDTH 8 0
BBX 8 8 0 0
BITMAP
ff
00
ff
00
ff
00
7e
00
ENDCHAR
STARTCHAR /home/kraus/git/open-iconic/png/justify-left.png
ENCODING 191
DWIDTH 8 0
BBX 8 8 0 0
BITMAP
ff
00
ff
00
ff
00
fc
00
ENDCHAR
STARTCHAR /home/kraus/git/open-iconic/png/justify-right.png
ENCODING 192
DWIDTH 8 0
BBX 8 8 0 0
BITMAP
ff
00
ff
00
ff
00
3f
00
ENDCHAR
STARTCHAR /home/kraus/git/open-iconic/png/key.png
ENCODING 193
DWIDTH 8 0
BBX 8 8 0 0
BITMAP
0e
19
19
3f
7e
78
e0
e0
ENDCHAR
STARTCHAR /home/kraus/git/open-iconic/png/laptop.png
ENCODING 194
DWIDTH 8 0
BBX 8 8 0 0
BITMAP
00
7e
42
42
42
e7
ff
00
ENDCHAR
STARTCHAR /home/kraus/git/open-iconic/png/layers.png
ENCODING 195
DWIDTH 8 0
BBX 8 8 0 0
BITMAP
f0
f0
f4
f4
05
3d
01
0f
ENDCHAR
STARTCHAR /home/kraus/git/open-iconic/png/lightbulb.png
ENCODING 196
DWIDTH 8 0
BBX 8 8 0 0
BITMAP
18
70
1c
70
1c
38
00
10
ENDCHAR
STARTCHAR /home/kraus/git/open-iconic/png/link-broken.png
ENCODING 197
DWIDTH 8 0
BBX 8 8 0 0
BITMAP
26
69
01
22
44
80
96
64
ENDCHAR
STARTCHAR /home/kraus/git/open-iconic/png/link-intact.png
ENCODING 198
DWIDTH 8 0
BBX 8 8 0 0
BITMAP
06
01
19
22
44
98
80
60
ENDCHAR
STARTCHAR /home/kraus/git/open-iconic/png/list.png
ENCODING 199
DWIDTH 8 0
BBX 8 8 0 0
BITMAP
bf
00
bf
00
bf
00
bf
00
ENDCHAR
STARTCHAR /home/kraus/git/open-iconic/png/list-rich.png
ENCODING 200
DWIDTH 8 0
BBX 8 8 0 0
BITMAP
ef
e0
ee
00
ef
e0
ee
00
ENDCHAR
STARTCHAR /home/kraus/git/open-iconic/png/location.png
ENCODING 201
DWIDTH 8 0
BBX 8 8 0 0
BITMAP
00
06
1e
7c
3c
18
08
00
ENDCHAR
STARTCHAR /home/kraus/git/open-iconic/png/lock-locked.png
ENCODING 202
DWIDTH 8 0
BBX 8 8 0 0
BITMAP
18
24
24
7e
7e
7e
7e
00
ENDCHAR
STARTCHAR /home/kraus/git/open-iconic/png/lock-unlocked.png
ENCODING 203
DWIDTH 8 0
BBX 8 8 0 0
BITMAP
18
24
04
04
7e
7e
7e
7e
ENDCHAR
STARTCHAR /home/kraus/git/open-iconic/png/loop.png
ENCODING 204
DWIDTH 8 0
BBX 8 8 0 0
BITMAP
02
ff
82
00
41
ff
40
00
ENDCHAR
STARTCHAR /home/kraus/git/open-iconic/png/loop-circular.png
ENCODING 205
DWIDTH 8 0
BBX 8 8 0 0
BITMAP
00
30
62
47
e2
46
0c
00
ENDCHAR
STARTCHAR /home/kraus/git/open-iconic/png/loop-square.png
ENCODING 206
DWIDTH 8 0
BBX 8 8 0 0
BITMAP
7e
42
02
47
e2
40
42
7e
ENDCHAR
STARTCHAR /home/kraus/git/open-iconic/png/magnifying-glass.png
ENCODING 207
DWIDTH 8 0
BBX 8 8 0 0
BITMAP
38
44
82
82
82
46
3f
03
ENDCHAR
STARTCHAR /home/kraus/git/open-iconic/png/map.png
ENCODING 208
DWIDTH 8 0
BBX 8 8 0 0
BITMAP
ff
81
b9
a9
b9
97
81
ff
ENDCHAR
STARTCHAR /home/kraus/git/open-iconic/png/map-marker.png
ENCODING 209
DWIDTH 8 0
BBX 8 8 0 0
BITMAP
3c
66
42
42
66
3c
18
00
ENDCHAR
STARTCHAR /home/kraus/git/open-iconic/png/media-pause.png
ENCODING 210
DWIDTH 8 0
BBX 8 8 0 0
BITMAP
00
66
66
66
66
66
66
00
ENDCHAR
STARTCHAR /home/kraus/git/open-iconic/png/media-play.png
ENCODING 211
DWIDTH 8 0
BBX 8 8 0 0
BITMAP
00
40
70
7c
7c
70
40
00
ENDCHAR
STARTCHAR /home/kraus/git/open-iconic/png/media-record.png
ENCODING 212
DWIDTH 8 0
BBX 8 8 0 0
BITMAP
00
3c
7e
7e
7e
7e
3c
00
ENDCHAR
STARTCHAR /home/kraus/git/open-iconic/png/media-skip-backward.png
ENCODING 213
DWIDTH 8 0
BBX 8 8 0 0
BITMAP
00
11
33
77
77
33
11
00
ENDCHAR
STARTCHAR /home/kraus/git/open-iconic/png/media-skip-forward.png
ENCODING 214
DWIDTH 8 0
BBX 8 8 0 0
BITMAP
00
88
cc
ee
ee
cc
88
00
ENDCHAR
STARTCHAR /home/kraus/git/open-iconic/png/media-step-backward.png
ENCODING 215
DWIDTH 8 0
BBX 8 8 0 0
BITMAP
00
c2
c6
de
de
c6
c2
00
ENDCHAR
STARTCHAR /home/kraus/git/open-iconic/png/media-step-forward.png
ENCODING 216
DWIDTH 8 0
BBX 8 8 0 0
BITMAP
00
86
c6
f6
f6
c6
86
00
ENDCHAR
STARTCHAR /home/kraus/git/open-iconic/png/media-stop.png
ENCODING 217
DWIDTH 8 0
BBX 8 8 0 0
BITMAP
00
7e
7e
7e
7e
7e
7e
00
ENDCHAR
STARTCHAR /home/kraus/git/open-iconic/png/medical-cross.png
ENCODING 218
DWIDTH 8 0
BBX 8 8 0 0
BITMAP
3c
3c
ff
ff
ff
ff
3c
3c
ENDCHAR
STARTCHAR /home/kraus/git/open-iconic/png/menu.png
ENCODING 219
DWIDTH 8 0
BBX 8 8 0 0
BITMAP
00
ff
00
00
ff
00
00
ff
ENDCHAR
STARTCHAR /home/kraus/git/open-iconic/png/microphone.png
ENCODING 220
DWIDTH 8 0
BBX 8 8 0 0
BITMAP
18
18
5a
5a
66
3c
08
3c
ENDCHAR
STARTCHAR /home/kraus/git/open-iconic/png/minus.png
ENCODING 221
DWIDTH 8 0
BBX 8 8 0 0
BITMAP
00
00
00
ff
ff
00
00
00
ENDCHAR
STARTCHAR /home/kraus/git/open-iconic/png/monitor.png
ENCODING 222
DWIDTH 8 0
BBX 8 8 0 0
BITMAP
ff
81
81
81
81
ff
18
7e
ENDCHAR
STARTCHAR /home/kraus/git/open-iconic/png/moon.png
ENCODING 223
DWIDTH 8 0
BBX 8 8 0 0
BITMAP
00
60
e0
e0
f0
fe
7e
18
ENDCHAR
STARTCHAR /home/kraus/git/open-iconic/png/move.png
ENCODING 224
DWIDTH 8 0
BBX 8 8 0 0
BITMAP
10
10
10
fe
10
10
10
00
ENDCHAR
STARTCHAR /home/kraus/git/open-iconic/png/musical-note.png
ENCODING 225
DWIDTH 8 0
BBX 8 8 0 0
BITMAP
1f
3f
21
21
27
e7
e7
e0
ENDCHAR
STARTCHAR /home/kraus/git/open-iconic/png/paperclip.png
ENCODING 226
DWIDTH 8 0
BBX 8 8 0 0
BITMAP
0c
12
22
44
a8
b0
c8
70
ENDCHAR
STARTCHAR /home/kraus/git/open-iconic/png/pencil.png
ENCODING 227
DWIDTH 8 0
BBX 8 8 0 0
BITMAP
00
02
00
18
38
70
e0
c0
ENDCHAR
STARTCHAR /home/kraus/git/open-iconic/png/people.png
ENCODING 228
DWIDTH 8 0
BBX 8 8 0 0
BITMAP
04
26
76
74
21
8b
fb
f8
ENDCHAR
STARTCHAR /home/kraus/git/open-iconic/png/person.png
ENCODING 229
DWIDTH 8 0
BBX 8 8 0 0
BITMAP
18
3c
3c
3c
18
46
ff
ff
ENDCHAR
STARTCHAR /home/kraus/git/open-iconic/png/phone.png
ENCODING 230
DWIDTH 8 0
BBX 8 8 0 0
BITMAP
7c
44
44
44
44
44
7c
7c
ENDCHAR
STARTCHAR /home/kraus/git/open-iconic/png/pie-chart.png
ENCODING 231
DWIDTH 8 0
BBX 8 8 0 0
BITMAP
30
34
16
c7
e7
cf
1e
1c
ENDCHAR
STARTCHAR /home/kraus/git/open-iconic/png/pin.png
ENCODING 232
DWIDTH 8 0
BBX 8 8 0 0
BITMAP
7c
38
38
fe
10
10
10
00
ENDCHAR
STARTCHAR /home/kraus/git/open-iconic/png/play-circle.png
ENCODING 233
DWIDTH 8 0
BBX 8 8 0 0
BITMAP
3c
7e
ef
e7
e7
ef
7e
3c
ENDCHAR
STARTCHAR /home/kraus/git/open-iconic/png/plus.png
ENCODING 234
DWIDTH 8 0
BBX 8 8 0 0
BITMAP
18
18
18
ff
ff
18
18
18
ENDCHAR
STARTCHAR /home/kraus/git/open-iconic/png/power-standby.png
ENCODING 235
DWIDTH 8 0
BBX 8 8 0 0
BITMAP
10
10
54
92
82
82
44
38
ENDCHAR
STARTCHAR /home/kraus/git/open-iconic/png/print.png
ENCODING 236
DWIDTH 8 0
BBX 8 8 0 0
BITMAP
3c
3c
00
ff
81
bd
3c
3c
ENDCHAR
STARTCHAR /home/kraus/git/open-iconic/png/project.png
ENCODING 237
DWIDTH 8 0
BBX 8 8 0 0
BITMAP
81
b1
81
99
81
8d
81
00
ENDCHAR
STARTCHAR /home/kraus/git/open-iconic/png/pulse.png
ENCODING 238
DWIDTH 8 0
BBX 8 8 0 0
BITMAP
00
10
30
3c
ef
68
00
00
ENDCHAR
STARTCHAR /home/kraus/git/open-iconic/png/puzzle-piece.png
ENCODING 239
DWIDTH 8 0
BBX 8 8 0 0
BITMAP
30
30
fc
fc
ff
ff
cc
cc
ENDCHAR
STARTCHAR /home/kraus/git/open-iconic/png/question-mark.png
ENCODING 240
DWIDTH 8 0
BBX 8 8 0 0
BITMAP
1c
22
02
04
0c
08
00
08
ENDCHAR
STARTCHAR /home/kraus/git/open-iconic/png/rain.png
ENCODING 241
DWIDTH 8 0
BBX 8 8 0 0
BITMAP
1c
3e
7e
ff
c7
11
54
54
ENDCHAR
STARTCHAR /home/kraus/git/open-iconic/png/random.png
ENCODING 242
DWIDTH 8 0
BBX 8 8 0 0
BITMAP
02
c7
6a
30
30
6a
c7
02
ENDCHAR
STARTCHAR /home/kraus/git/open-iconic/png/reload.png
ENCODING 243
DWIDTH 8 0
BBX 8 8 0 0
BITMAP
3c
43
87
80
80
80
40
3c
ENDCHAR
STARTCHAR /home/kraus/git/open-iconic/png/resize-both.png
ENCODING 244
DWIDTH 8 0
BBX 8 8 0 0
BITMAP
07
07
07
08
90
e0
e0
e0
ENDCHAR
STARTCHAR /home/kraus/git/open-iconic/png/resize-height.png
ENCODING 245
DWIDTH 8 0
BBX 8 8 0 0
BITMAP
10
38
7c
10
10
7c
38
10
ENDCHAR
STARTCHAR /home/kraus/git/open-iconic/png/resize-width.png
ENCODING 246
DWIDTH 8 0
BBX 8 8 0 0
BITMAP
00
24
66
ff
66
24
00
00
ENDCHAR
STARTCHAR /home/kraus/git/open-iconic/png/rss.png
ENCODING 247
DWIDTH 8 0
BBX 8 8 0 0
BITMAP
70
18
64
1a
6b
35
d5
c0
ENDCHAR
STARTCHAR /home/kraus/git/open-iconic/png/rss-alt.png
ENCODING 248
DWIDTH 8 0
BBX 8 8 0 0
BITMAP
e0
f8
3c
ce
f6
37
9b
db
ENDCHAR
STARTCHAR /home/kraus/git/open-iconic/png/script.png
ENCODING 249
DWIDTH 8 0
BBX 8 8 0 0
BITMAP
3f
2f
2f
20
3e
be
be
fe
ENDCHAR
STARTCHAR /home/kraus/git/open-iconic/png/share.png
ENCODING 250
DWIDTH 8 0
BBX 8 8 0 0
BITMAP
04
06
3f
7e
c4
80
00
00
ENDCHAR
STARTCHAR /home/kraus/git/open-iconic/png/share-boxed.png
ENCODING 251
DWIDTH 8 0
BBX 8 8 0 0
BITMAP
e0
8f
9e
80
80
84
fc
00
ENDCHAR
STARTCHAR /home/kraus/git/open-iconic/png/shield.png
ENCODING 252
DWIDTH 8 0
BBX 8 8 0 0
BITMAP
18
ef
8f
8f
4e
4e
2c
18
ENDCHAR
STARTCHAR /home/kraus/git/open-iconic/png/signal.png
ENCODING 253
DWIDTH 8 0
BBX 8 8 0 0
BITMAP
02
0a
0a
2a
2a
aa
aa
aa
ENDCHAR
STARTCHAR /home/kraus/git/open-iconic/png/signpost.png
ENCODING 254
DWIDTH 8 0
BBX 8 8 0 0
BITMAP
10
70
7c
1c
10
10
10
10
ENDCHAR
STARTCHAR /home/kraus/git/open-iconic/png/sort-ascending.png
ENCODING 255
DWIDTH 8 0
BBX 8 8 0 0
BITMAP
2c
20
2e
20
2f
20
70
20
ENDCHAR
STARTCHAR /home/kraus/git/open-iconic/png/sort-descending.png
ENCODING 256
DWIDTH 8 0
BBX 8 8 0 0
BITMAP
2f
20
2e
20
2c
20
70
20
ENDCHAR
STARTCHAR /home/kraus/git/open-iconic/png/spreadsheet.png
ENCODING 257
DWIDTH 8 0
BBX 8 8 0 0
BITMAP
ff
a1
ff
a1
ff
a1
ff
00
ENDCHAR
STARTCHAR /home/kraus/git/open-iconic/png/star.png
ENCODING 258
DWIDTH 8 0
BBX 8 8 0 0
BITMAP
00
00
18
7e
3c
3c
24
00
ENDCHAR
STARTCHAR /home/kraus/git/open-iconic/png/sun.png
ENCODING 259
DWIDTH 8 0
BBX 8 8 0 0
BITMAP
00
42
18
3c
3c
18
42
00
ENDCHAR
STARTCHAR /home/kraus/git/open-iconic/png/tablet.png
ENCODING 260
DWIDTH 8 0
BBX 8 8 0 0
BITMAP
fe
82
82
82
82
82
fe
fe
ENDCHAR
STARTCHAR /home/kraus/git/open-iconic/png/tag.png
ENCODING 261
DWIDTH 8 0
BBX 8 8 0 0
BITMAP
e0
90
98
7c
3e
1e
0c
00
ENDCHAR
STARTCHAR /home/kraus/git/open-iconic/png/tags.png
ENCODING 262
DWIDTH 8 0
BBX 8 8 0 0
BITMAP
00
c8
a4
72
32
00
00
00
ENDCHAR
STARTCHAR /home/kraus/git/open-iconic/png/target.png
ENCODING 263
DWIDTH 8 0
BBX 8 8 0 0
BITMAP
3c
42
99
a5
a5
99
42
3c
ENDCHAR
STARTCHAR /home/kraus/git/open-iconic/png/task.png
ENCODING 264
DWIDTH 8 0
BBX 8 8 0 0
BITMAP
f8
82
84
98
82
82
fe
00
ENDCHAR
STARTCHAR /home/kraus/git/open-iconic/png/terminal.png
ENCODING 265
DWIDTH 8 0
BBX 8 8 0 0
BITMAP
ff
bf
df
b1
ff
ff
ff
ff
ENDCHAR
STARTCHAR /home/kraus/git/open-iconic/png/text.png
ENCODING 266
DWIDTH 8 0
BBX 8 8 0 0
BITMAP
ff
99
18
18
18
18
18
3c
ENDCHAR
STARTCHAR /home/kraus/git/open-iconic/png/thumb-down.png
ENCODING 267
DWIDTH 8 0
BBX 8 8 0 0
BITMAP
bc
bc
be
be
18
18
08
00
ENDCHAR
STARTCHAR /home/kraus/git/open-iconic/png/thumb-up.png
ENCODING 268
DWIDTH 8 0
BBX 8 8 0 0
BITMAP
08
18
18
be
be
bc
bc
00
ENDCHAR
STARTCHAR /home/kraus/git/open-iconic/png/timer.png
ENCODING 269
DWIDTH 8 0
BBX 8 8 0 0
BITMAP
38
38
40
8a
92
82
44
38
ENDCHAR
STARTCHAR /home/kraus/git/open-iconic/png/transfer.png
ENCODING 270
DWIDTH 8 0
BBX 8 8 0 0
BITMAP
02
ff
02
00
40
ff
40
00
ENDCHAR
STARTCHAR /home/kraus/git/open-iconic/png/trash.png
ENCODING 271
DWIDTH 8 0
BBX 8 8 0 0
BITMAP
38
fe
00
54
54
54
54
7c
ENDCHAR
STARTCHAR /home/kraus/git/open-iconic/png/underline.png
ENCODING 272
DWIDTH 8 0
BBX 8 8 0 0
BITMAP
64
64
64
64
64
38
00
fe
ENDCHAR
STARTCHAR /home/kraus/git/open-iconic/png/vertical-align-bottom.png
ENCODING 273
DWIDTH 8 0
BBX 8 8 0 0
BITMAP
c3
c3
db
db
db
00
ff
00
ENDCHAR
STARTCHAR /home/kraus/git/open-iconic/png/vertical-align-center.png
ENCODING 274
DWIDTH 8 0
BBX 8 8 0 0
BITMAP
c3
db
00
ff
00
db
c3
00
ENDCHAR
STARTCHAR /home/kraus/git/open-iconic/png/vertical-align-top.png
ENCODING 275
DWIDTH 8 0
BBX 8 8 0 0
BITMAP
ff
00
db
db
db
c3
c3
00
ENDCHAR
STARTCHAR /home/kraus/git/open-iconic/png/video.png
ENCODING 276
DWIDTH 8 0
BBX 8 8 0 0
BITMAP
00
fc
fd
ff
fd
fc
00
00
ENDCHAR
STARTCHAR /home/kraus/git/open-iconic/png/volume-high.png
ENCODING 277
DWIDTH 8 0
BBX 8 8 0 0
BITMAP
10
36
f3
f5
f5
f3
36
10
ENDCHAR
STARTCHAR /home/kraus/git/open-iconic/png/volume-low.png
ENCODING 278
DWIDTH 8 0
BBX 8 8 0 0
BITMAP
08
18
78
7a
7a
78
18
08
ENDCHAR
STARTCHAR /home/kraus/git/open-iconic/png/volume-off.png
ENCODING 279
DWIDTH 8 0
BBX 8 8 0 0
BITMAP
04
0c
3c
3c
3c
3c
0c
04
ENDCHAR
STARTCHAR /home/kraus/git/open-iconic/png/warning.png
ENCODING 280
DWIDTH 8 0
BBX 8 8 0 0
BITMAP
10
38
38
68
6c
7c
ee
fe
ENDCHAR
STARTCHAR /home/kraus/git/open-iconic/png/wifi.png
ENCODING 281
DWIDTH 8 0
BBX 8 8 0 0
BITMAP
7c
82
00
38
00
00
18
18
ENDCHAR
STARTCHAR /home/kraus/git/open-iconic/png/wrench.png
ENCODING 282
DWIDTH 8 0
BBX 8 8 0 0
BITMAP
08
18
18
1f
3e
70
e0
c0
ENDCHAR
STARTCHAR /home/kraus/git/open-iconic/png/x.png
ENCODING 283
DWIDTH 8 0
BBX 8 8 0 0
BITMAP
42
e7
7e
3c
3c
7e
e7
42
ENDCHAR
STARTCHAR /home/kraus/git/open-iconic/png/yen.png
ENCODING 284
DWIDTH 8 0
BBX 8 8 0 0
BITMAP
82
44
28
fe
10
fe
10
10
ENDCHAR
STARTCHAR /home/kraus/git/open-iconic/png/zoom-in.png
ENCODING 285
DWIDTH 8 0
BBX 8 8 0 0
BITMAP
38
44
92
ba
92
46
3f
03
ENDCHAR
STARTCHAR /home/kraus/git/open-iconic/png/zoom-out.png
ENCODING 286
DWIDTH 8 0
BBX 8 8 0 0
BITMAP
38
44
82
ba
82
46
3f
03
ENDCHAR
ENDFONT
